<?xml version="1.0" encoding="UTF-8" standalone="no"?>
<!DOCTYPE svg PUBLIC "-//W3C//DTD SVG 1.1//EN"
 "http://www.w3.org/Graphics/SVG/1.1/DTD/svg11.dtd">
<!-- Generated by graphviz version 2.40.1 (20161225.0304)
 -->
<!-- Title: %0 Pages: 1 -->
<svg width="627pt" height="736pt"
 viewBox="0.00 0.00 627.48 736.00" xmlns="http://www.w3.org/2000/svg" xmlns:xlink="http://www.w3.org/1999/xlink">
<g id="graph0" class="graph" transform="scale(1 1) rotate(0) translate(144 592)">
<title>%0</title>
<polygon fill="#ffffff" stroke="transparent" points="-144,144 -144,-592 483.4756,-592 483.4756,144 -144,144"/>
<!-- coaches -->
<g id="node1" class="node">
<title>coaches</title>
<polygon fill="#4477c9" stroke="transparent" points="270.4756,0 270.4756,-138 339.4756,-138 339.4756,0 270.4756,0"/>
<polygon fill="#add8e6" stroke="transparent" points="270.9756,-120 270.9756,-138 339.9756,-138 339.9756,-120 270.9756,-120"/>
<polygon fill="none" stroke="#000000" points="270.9756,-120 270.9756,-138 339.9756,-138 339.9756,-120 270.9756,-120"/>
<text text-anchor="start" x="288.9854" y="-126.9" font-family="Times,serif" font-weight="bold" font-style="italic" font-size="9.00" fill="#000000"> coaches </text>
<polygon fill="none" stroke="#000000" points="270.9756,-100 270.9756,-120 339.9756,-120 339.9756,-100 270.9756,-100"/>
<text text-anchor="start" x="275.9756" y="-106.9" font-family="Times,serif" font-size="9.00" fill="#000000">name: String</text>
<polygon fill="none" stroke="#000000" points="270.9756,-80 270.9756,-100 339.9756,-100 339.9756,-80 270.9756,-80"/>
<text text-anchor="start" x="275.9756" y="-86.9" font-family="Times,serif" font-size="9.00" fill="#000000">seats: Array</text>
<polygon fill="none" stroke="#000000" points="270.9756,-60 270.9756,-80 339.9756,-80 339.9756,-60 270.9756,-60"/>
<text text-anchor="start" x="275.9756" y="-66.9" font-family="Times,serif" font-size="9.00" fill="#000000">_id: ObjectID</text>
<polygon fill="none" stroke="#000000" points="270.9756,-40 270.9756,-60 339.9756,-60 339.9756,-40 270.9756,-40"/>
<text text-anchor="start" x="275.9756" y="-46.9" font-family="Times,serif" font-size="9.00" fill="#000000">createdAt: Date</text>
<polygon fill="none" stroke="#000000" points="270.9756,-20 270.9756,-40 339.9756,-40 339.9756,-20 270.9756,-20"/>
<text text-anchor="start" x="275.8611" y="-26.9" font-family="Times,serif" font-size="9.00" fill="#000000">updatedAt: Date</text>
<polygon fill="none" stroke="#000000" points="270.9756,0 270.9756,-20 339.9756,-20 339.9756,0 270.9756,0"/>
<text text-anchor="start" x="275.9756" y="-6.9" font-family="Times,serif" font-size="9.00" fill="#000000">__v: Number</text>
</g>
<!-- coaches_seats -->
<g id="node2" class="node">
<title>coaches_seats</title>
<polygon fill="#4477c9" stroke="transparent" points="0,-20 0,-198 71,-198 71,-20 0,-20"/>
<polygon fill="#add8e6" stroke="transparent" points=".5,-180 .5,-198 71.5,-198 71.5,-180 .5,-180"/>
<polygon fill="none" stroke="#000000" points=".5,-180 .5,-198 71.5,-198 71.5,-180 .5,-180"/>
<text text-anchor="start" x="8.514" y="-186.9" font-family="Times,serif" font-weight="bold" font-style="italic" font-size="9.00" fill="#000000"> coaches_seats </text>
<polygon fill="none" stroke="#000000" points=".5,-160 .5,-180 71.5,-180 71.5,-160 .5,-160"/>
<text text-anchor="start" x="5.3802" y="-166.9" font-family="Times,serif" font-size="9.00" fill="#000000">booked: Boolean</text>
<polygon fill="none" stroke="#000000" points=".5,-140 .5,-160 71.5,-160 71.5,-140 .5,-140"/>
<text text-anchor="start" x="5.5" y="-146.9" font-family="Times,serif" font-size="9.00" fill="#000000">userId: String</text>
<polygon fill="none" stroke="#000000" points=".5,-120 .5,-140 71.5,-140 71.5,-120 .5,-120"/>
<text text-anchor="start" x="5.5" y="-126.9" font-family="Times,serif" font-size="9.00" fill="#000000">row: Number</text>
<polygon fill="none" stroke="#000000" points=".5,-100 .5,-120 71.5,-120 71.5,-100 .5,-100"/>
<text text-anchor="start" x="5.5" y="-106.9" font-family="Times,serif" font-size="9.00" fill="#000000">seatId: String</text>
<polygon fill="none" stroke="#000000" points=".5,-80 .5,-100 71.5,-100 71.5,-80 .5,-80"/>
<text text-anchor="start" x="5.5" y="-86.9" font-family="Times,serif" font-size="9.00" fill="#000000">_id: ObjectID</text>
<polygon fill="none" stroke="#000000" points=".5,-60 .5,-80 71.5,-80 71.5,-60 .5,-60"/>
<text text-anchor="start" x="5.5" y="-66.9" font-family="Times,serif" font-size="9.00" fill="#000000">createdAt: Date</text>
<polygon fill="none" stroke="#000000" points=".5,-40 .5,-60 71.5,-60 71.5,-40 .5,-40"/>
<text text-anchor="start" x="5.5" y="-46.9" font-family="Times,serif" font-size="9.00" fill="#000000">updatedAt: Date</text>
<polygon fill="none" stroke="#000000" points=".5,-20 .5,-40 71.5,-40 71.5,-20 .5,-20"/>
<text text-anchor="start" x="5.5" y="-26.9" font-family="Times,serif" font-size="9.00" fill="#000000">__v: Number</text>
</g>
<!-- coaches_seats&#45;&gt;coaches -->
<g id="edge1" class="edge">
<title>coaches_seats:4&#45;&gt;coaches:1</title>
<path fill="none" stroke="#000000" stroke-dasharray="5,2" d="M71,-90C159.878,-90 182.0976,-90 270.9756,-90"/>
<text text-anchor="middle" x="170.7378" y="-94.2" font-family="Times,serif" font-size="14.00" fill="#000000">coaches_seats&#45;coaches</text>
<text text-anchor="middle" x="265.9223" y="-77.4" font-family="Times,serif" font-size="14.00" fill="#000000">N</text>
<text text-anchor="middle" x="74.5" y="-77.4" font-family="Times,serif" font-size="14.00" fill="#000000">1</text>
</g>
<!-- tickets -->
<g id="node3" class="node">
<title>tickets</title>
<polygon fill="#4477c9" stroke="transparent" points="0,-270 0,-448 71,-448 71,-270 0,-270"/>
<polygon fill="#add8e6" stroke="transparent" points=".5,-430 .5,-448 71.5,-448 71.5,-430 .5,-430"/>
<polygon fill="none" stroke="#000000" points=".5,-430 .5,-448 71.5,-448 71.5,-430 .5,-430"/>
<text text-anchor="start" x="22.0032" y="-436.9" font-family="Times,serif" font-weight="bold" font-style="italic" font-size="9.00" fill="#000000"> tickets </text>
<polygon fill="none" stroke="#000000" points=".5,-410 .5,-430 71.5,-430 71.5,-410 .5,-410"/>
<text text-anchor="start" x="5.3802" y="-416.9" font-family="Times,serif" font-size="9.00" fill="#000000">booked: Boolean</text>
<polygon fill="none" stroke="#000000" points=".5,-390 .5,-410 71.5,-410 71.5,-390 .5,-390"/>
<text text-anchor="start" x="5.5" y="-396.9" font-family="Times,serif" font-size="9.00" fill="#000000">userId: String</text>
<polygon fill="none" stroke="#000000" points=".5,-370 .5,-390 71.5,-390 71.5,-370 .5,-370"/>
<text text-anchor="start" x="5.5" y="-376.9" font-family="Times,serif" font-size="9.00" fill="#000000">row: Number</text>
<polygon fill="none" stroke="#000000" points=".5,-350 .5,-370 71.5,-370 71.5,-350 .5,-350"/>
<text text-anchor="start" x="5.5" y="-356.9" font-family="Times,serif" font-size="9.00" fill="#000000">seatId: String</text>
<polygon fill="none" stroke="#000000" points=".5,-330 .5,-350 71.5,-350 71.5,-330 .5,-330"/>
<text text-anchor="start" x="5.5" y="-336.9" font-family="Times,serif" font-size="9.00" fill="#000000">_id: ObjectID</text>
<polygon fill="none" stroke="#000000" points=".5,-310 .5,-330 71.5,-330 71.5,-310 .5,-310"/>
<text text-anchor="start" x="5.5" y="-316.9" font-family="Times,serif" font-size="9.00" fill="#000000">createdAt: Date</text>
<polygon fill="none" stroke="#000000" points=".5,-290 .5,-310 71.5,-310 71.5,-290 .5,-290"/>
<text text-anchor="start" x="5.5" y="-296.9" font-family="Times,serif" font-size="9.00" fill="#000000">updatedAt: Date</text>
<polygon fill="none" stroke="#000000" points=".5,-270 .5,-290 71.5,-290 71.5,-270 .5,-270"/>
<text text-anchor="start" x="5.5" y="-276.9" font-family="Times,serif" font-size="9.00" fill="#000000">__v: Number</text>
</g>
</g>
</svg>
